HIERARCHY
ROOT Hips
{
	OFFSET -0.001795 -0.223333 0.028219
	CHANNELS 6 Xposition Yposition Zposition Zrotation Yrotation Xrotation 
	JOINT LeftUpLeg
	{
		OFFSET 0.069520 -0.091406 -0.006815
		CHANNELS 3 Zrotation Yrotation Xrotation
		JOINT LeftLeg
		{
			OFFSET 0.034277 -0.375199 -0.004496
			CHANNELS 3 Zrotation Yrotation Xrotation
			JOINT LeftFoot
			{
				OFFSET -0.013596 -0.397961 -0.043693
				CHANNELS 3 Zrotation Yrotation Xrotation
				JOINT LeftToe
				{
					OFFSET 0.026358 -0.055791 0.119288
					CHANNELS 3 Zrotation Yrotation Xrotation
					End Site
					{
						OFFSET 0.000000 0.000000 0.000000
					}
				}
			}
		}
	}
	JOINT RightUpLeg
	{
		OFFSET -0.067670 -0.090522 -0.004320
		CHANNELS 3 Zrotation Yrotation Xrotation
		JOINT RightLeg
		{
			OFFSET -0.038290 -0.382569 -0.008850
			CHANNELS 3 Zrotation Yrotation Xrotation
			JOINT RightFoot
			{
				OFFSET 0.015774 -0.398415 -0.042312
				CHANNELS 3 Zrotation Yrotation Xrotation
				JOINT RightToe
				{
					OFFSET -0.025372 -0.048144 0.123348
					CHANNELS 3 Zrotation Yrotation Xrotation
					End Site
					{
						OFFSET 0.000000 0.000000 0.000000
					}
				}
			}
		}
	}
	JOINT Spine
	{
		OFFSET -0.002533 0.108963 -0.026696
		CHANNELS 3 Zrotation Yrotation Xrotation
		JOINT Spine1
		{
			OFFSET 0.005487 0.135180 0.001092
			CHANNELS 3 Zrotation Yrotation Xrotation
			JOINT Spine2
			{
				OFFSET 0.001457 0.052922 0.025425
				CHANNELS 3 Zrotation Yrotation Xrotation
				JOINT Neck
				{
					OFFSET -0.002778 0.213870 -0.042857
					CHANNELS 3 Zrotation Yrotation Xrotation
					JOINT Head
					{
						OFFSET 0.005152 0.064970 0.051349
						CHANNELS 3 Zrotation Yrotation Xrotation
						End Site
						{
							OFFSET 0.000000 0.000000 0.000000
						}
					}
				}
				JOINT LeftShoulder
				{
					OFFSET 0.078845 0.121749 -0.034090
					CHANNELS 3 Zrotation Yrotation Xrotation
					JOINT LeftArm
					{
						OFFSET 0.090977 0.030469 -0.008868
						CHANNELS 3 Zrotation Yrotation Xrotation
						JOINT LeftForeArm
						{
							OFFSET 0.259612 -0.012772 -0.027456
							CHANNELS 3 Zrotation Yrotation Xrotation
							JOINT LeftHand
							{
								OFFSET 0.249234 0.008986 -0.001171
								CHANNELS 3 Zrotation Yrotation Xrotation
								End Site
								{
									OFFSET 0.000000 0.000000 0.000000
								}
							}
						}
					}
				}
				JOINT RightShoulder
				{
					OFFSET -0.081759 0.118833 -0.038615
					CHANNELS 3 Zrotation Yrotation Xrotation
					JOINT RightArm
					{
						OFFSET -0.096012 0.032551 -0.009143
						CHANNELS 3 Zrotation Yrotation Xrotation
						JOINT RightForeArm
						{
							OFFSET -0.253742 -0.013329 -0.021401
							CHANNELS 3 Zrotation Yrotation Xrotation
							JOINT RightHand
							{
								OFFSET -0.255298 0.007772 -0.005559
								CHANNELS 3 Zrotation Yrotation Xrotation
								End Site
								{
									OFFSET 0.000000 0.000000 0.000000
								}
							}
						}
					}
				}
			}
		}
	}
}
MOTION
Frames: 10
Frame Time: 0.050000
0.000000 0.940770 0.000000 -1.180262 -5.129531 9.006815 5.734880 -0.281706 -3.697203 0.767619 0.137121 -5.440238 0.433545 7.204957 22.981208 0.000000 0.000000 0.000000 -1.610375 0.528137 -5.228521 -3.277667 0.067749 -3.541085 -0.789715 -7.788627 13.796570 0.000000 0.000000 0.000000 4.778673 0.166334 -3.891754 -2.397032 1.058787 -5.182608 -2.659284 3.414599 0.329161 5.154948 -2.972465 -7.121928 0.000000 0.000000 0.000000 -3.494073 3.442681 -1.661064 -18.483356 -20.163707 0.347400 11.292005 -2.133287 -0.097019 0.000000 0.000000 0.000000 1.473117 -8.644346 -3.203719 24.052908 16.690639 0.600745 -9.801485 8.542549 -0.225590 0.000000 0.000000 0.000000 
0.000465 0.939627 0.000138 -1.857923 -6.386522 9.904763 5.681117 -0.260973 -3.232016 1.841429 0.170552 -7.349830 1.192144 8.001972 23.082854 0.000000 0.000000 0.000000 -1.081640 0.583336 -5.856080 -3.259082 0.003316 -4.402760 -0.115958 -6.794072 13.847493 0.000000 0.000000 0.000000 6.228687 0.208289 -4.365677 -3.218584 1.368719 -5.654300 -3.024406 4.166051 -0.821403 4.559169 -2.428856 -7.852875 0.000000 0.000000 0.000000 -1.438113 4.358604 -1.677455 -15.363004 -21.651743 0.290010 8.829525 -2.206614 -0.064898 0.000000 0.000000 0.000000 -0.780555 -10.672187 -3.499467 23.098949 18.426203 0.878600 -11.396499 10.302628 -0.419364 0.000000 0.000000 0.000000 
0.000807 0.939347 0.000160 -1.448840 -6.580583 9.443610 5.449062 -0.256153 -3.231978 1.363452 0.149027 -6.490778 1.286656 8.063434 22.868027 0.000000 0.000000 0.000000 -1.836935 0.622982 -6.249763 -2.787790 0.068344 -2.906717 -0.228872 -6.778604 13.158519 0.000000 0.000000 0.000000 5.919850 0.142239 -3.644889 -2.643062 1.087024 -8.836797 -4.041061 5.326615 1.798485 6.121241 -3.695020 -6.720920 0.000000 0.000000 0.000000 1.138283 4.667795 -1.370310 -14.955954 -24.198062 0.341597 10.578239 -2.580626 -0.133809 0.000000 0.000000 0.000000 -1.097237 -11.612278 -3.826781 22.133262 19.867420 0.856588 -15.642990 10.561589 -0.657923 0.000000 0.000000 0.000000 
0.001042 0.939372 0.000225 -1.592194 -6.574636 9.646751 6.198031 -0.244246 -3.107172 0.286731 0.238896 -7.067817 1.225364 8.010185 23.014982 0.000000 0.000000 0.000000 -1.750241 0.622681 -6.238728 -2.693812 0.038175 -3.297151 -0.178359 -6.752144 13.353455 0.000000 0.000000 0.000000 5.826985 0.196862 -4.217301 -2.547400 1.063649 -7.697722 -3.674126 4.470214 0.441916 5.730212 -3.588492 -5.662880 0.000000 0.000000 0.000000 1.547442 6.661783 -1.942980 -15.251245 -26.599265 0.641785 13.275286 -3.148750 -0.223402 0.000000 0.000000 0.000000 -2.619123 -12.707662 -3.837592 22.263884 22.196745 1.324020 -18.664688 11.504752 -1.018959 0.000000 0.000000 0.000000 
0.001054 0.940034 0.000174 -1.195959 -6.040039 9.425116 5.517917 -0.243267 -2.799482 0.841688 0.228898 -7.498099 0.823652 7.635329 23.327711 0.000000 0.000000 0.000000 -2.304616 0.624187 -6.245682 -2.353582 0.048904 -2.779501 -0.478199 -7.213080 13.360244 0.000000 0.000000 0.000000 5.333346 0.213311 -4.405076 -1.827232 0.793157 -8.401217 -4.038626 4.812080 0.931502 5.946590 -3.777312 -5.386554 0.000000 0.000000 0.000000 1.789592 6.953305 -1.971837 -16.613791 -27.656443 0.900518 16.336901 -7.542611 -0.813452 0.000000 0.000000 0.000000 -2.927540 -13.456820 -4.065044 24.878017 21.885825 1.561752 -23.555935 15.772718 -2.051496 0.000000 0.000000 0.000000 
0.001156 0.939951 -0.000032 -1.010525 -5.436057 9.295096 5.399125 -0.260335 -3.068771 0.827841 0.207763 -7.053360 0.528612 7.311088 23.125817 0.000000 0.000000 0.000000 -2.628840 0.599827 -5.955686 -2.010071 0.019636 -2.923558 -0.774450 -7.660243 13.377446 0.000000 0.000000 0.000000 4.840393 0.252337 -4.862875 -1.505860 0.683731 -7.751096 -3.847038 4.553194 0.677836 5.835705 -3.793986 -4.753377 0.000000 0.000000 0.000000 1.143133 8.611495 -2.612821 -20.269813 -28.262474 1.530721 20.164939 -14.113355 -2.047952 0.000000 0.000000 0.000000 -3.026773 -13.654436 -4.108998 28.940975 22.005711 2.093561 -28.011320 19.372856 -3.299396 0.000000 0.000000 0.000000 
0.001201 0.940148 -0.000267 -0.848831 -4.799442 8.850626 5.304477 -0.250841 -2.829358 0.817504 0.200962 -6.905316 0.159648 6.919680 23.042459 0.000000 0.000000 0.000000 -2.966758 0.524280 -5.015148 -1.565741 -0.043462 -3.605938 -1.007019 -8.046148 13.598033 0.000000 0.000000 0.000000 4.853786 0.311410 -5.467972 -1.531115 0.704996 -6.377590 -4.319669 4.379340 -0.031357 6.288053 -4.132812 -4.557791 0.000000 0.000000 0.000000 -0.052940 8.462543 -2.789888 -24.237238 -27.234767 2.007622 20.950902 -20.342366 -3.176537 0.000000 0.000000 0.000000 -1.024869 -13.637099 -4.506118 32.790068 20.280873 2.169974 -26.466780 23.659371 -3.911403 0.000000 0.000000 0.000000 
0.001406 0.940454 -0.000515 -0.741479 -4.066119 8.696592 5.122977 -0.257841 -2.850183 1.071270 0.186226 -6.882437 -0.243091 6.508194 23.019385 0.000000 0.000000 0.000000 -3.499768 0.520308 -4.941218 -0.675067 -0.083654 -3.268364 -1.352731 -8.583656 13.695236 0.000000 0.000000 0.000000 4.702430 0.318177 -5.597784 -1.440833 0.680291 -6.282177 -4.911900 4.984634 0.382716 6.348098 -4.175421 -4.446215 0.000000 0.000000 0.000000 -3.132403 8.063768 -3.318751 -29.190607 -24.746119 2.167441 19.954413 -26.972851 -4.143606 0.000000 0.000000 0.000000 3.411286 -13.480291 -5.325541 35.838186 17.279847 1.573366 -20.984031 26.458523 -3.199722 0.000000 0.000000 0.000000 
0.001556 0.939986 -0.000642 -0.641673 -3.734060 8.606779 5.115905 -0.263240 -2.929929 0.949546 0.184624 -6.711827 -0.383293 6.325581 22.785275 0.000000 0.000000 0.000000 -3.458160 0.474519 -4.340359 -0.884659 -0.106724 -4.091381 -1.483182 -8.785609 13.757682 0.000000 0.000000 0.000000 4.794926 0.367333 -6.137894 -1.414888 0.671906 -5.115553 -5.283011 5.439579 -0.210260 6.222936 -4.029363 -4.548773 0.000000 0.000000 0.000000 -6.685263 7.061382 -3.775510 -34.300951 -22.426234 2.243147 14.289688 -27.657240 -2.888788 0.000000 0.000000 0.000000 6.797816 -12.107967 -5.351275 39.216423 13.995224 0.822406 -10.947228 26.037660 -1.082570 0.000000 0.000000 0.000000 
0.001507 0.939561 -0.000701 -0.606589 -3.550497 8.743056 5.378088 -0.274987 -3.156052 0.469698 0.207784 -6.648719 -0.455295 6.226898 22.654427 0.000000 0.000000 0.000000 -3.600855 0.497335 -4.639460 -0.657626 -0.106396 -3.771894 -1.628172 -8.968618 13.566111 0.000000 0.000000 0.000000 5.001395 0.375788 -6.219667 -1.684724 0.785538 -4.808539 -5.294850 6.019047 -0.070642 6.719097 -4.117480 -5.862117 0.000000 0.000000 0.000000 -9.780325 6.685079 -4.397841 -40.180268 -18.327878 1.523957 6.337614 -27.268169 -0.927547 0.000000 0.000000 0.000000 10.526871 -11.417692 -5.596843 43.128668 10.855857 -0.125304 -2.011878 24.426979 0.706128 0.000000 0.000000 0.000000 
